# xmcd CD database file
#
# Track frame offsets:
#	225
#	16331
#	36237
#	48944
#	67796
#	84152
#	99328
#	109798
#	120899
#	135761
#	169439
#
# Disc length: 2474 seconds
#
# Revision: 2
# Processed by: cddbd v1.5.2PL0 Copyright (c) Steve Scherf et al.
# Submitted via: jetAudio 7
#
DISCID=7809a70b
DTITLE=Delta Moon - Delta Moon
DYEAR=2002
DGENRE=Blues
TTITLE0=Preachin' Blues
TTITLE1=House of Dolls
TTITLE2=Mansfield Road
TTITLE3=Shake 'Em On Down
TTITLE4=You Can't Make Somebody Love You
TTITLE5=Fooling Around
TTITLE6=She's Mine, She's Yours
TTITLE7=Big Road Blues
TTITLE8=Jelly Roll
TTITLE9=Wang Dang Doodle
TTITLE10=Play Me A Song, Little Blind Boy
EXTD=YEAR: 2002
EXTT0=
EXTT1=
EXTT2=
EXTT3=
EXTT4=
EXTT5=
EXTT6=
EXTT7=
EXTT8=
EXTT9=
EXTT10=
PLAYORDER=
